<?xml version="1.0" encoding="UTF-8" standalone="no"?><svg xmlns="http://www.w3.org/2000/svg" xmlns:xlink="http://www.w3.org/1999/xlink" contentScriptType="text/ecmascript" fill="#000000" zoomAndPan="magnify" contentStyleType="text/css" viewBox="0 0 176.2 30.84" preserveAspectRatio="xMidYMid meet" overflow="hidden" version="1"><g><g><g><g fill="#2e3192"><path d="M92.09 6.8 92.09 0.15 92.99 0.15 97.03 4.58 97.03 0.15 98.33 0.15 98.33 6.8 97.43 6.8 93.39 2.36 93.39 6.8 92.09 6.8Z"/><path d="M104.12 1.27 101.73 1.27 101.73 2.76 104.02 2.76 104.02 3.88 101.73 3.88 101.73 5.69 104.12 5.69 104.12 6.81 100.43 6.81 100.43 0.15 104.12 0.15 104.12 1.27Z"/><path d="M109.24 1.66C108.85 1.14 108.39 1.09 108.15 1.09 107.45 1.09 107.23 1.53 107.23 1.87 107.23 2.03 107.28 2.18 107.44 2.32 107.6 2.47 107.82 2.55 108.24 2.7 108.76 2.88 109.25 3.06 109.58 3.37 109.88 3.64 110.15 4.09 110.15 4.77 110.15 6.06 109.21 6.95 107.84 6.95 106.61 6.95 105.9 6.2 105.55 5.69L106.4 4.88C106.72 5.53 107.33 5.77 107.8 5.77 108.39 5.77 108.83 5.41 108.83 4.85 108.83 4.61 108.75 4.42 108.57 4.25 108.32 4.02 107.92 3.89 107.54 3.76 107.19 3.64 106.77 3.48 106.43 3.18 106.21 2.99 105.9 2.62 105.9 1.94 105.9 0.96 106.56-0.01 108.03-0.01 108.45-0.01 109.24 0.07 109.91 0.77L109.23 1.66Z"/><path d="M112.68 0.15 113.62 0.15 115.38 4.37 117.22 0.15 118.16 0.15 119.28 6.8 117.96 6.8 117.36 2.71 115.58 6.8 115.14 6.8 113.44 2.71 112.76 6.8 111.45 6.8 112.69 0.15Z"/><path d="M124.98 5.4 122.3 5.4 121.71 6.79 120.3 6.79 123.16 0.14 124.18 0.14 126.96 6.79 125.57 6.79 124.98 5.4ZM124.6 4.34 123.65 1.95 122.7 4.34 124.59 4.34Z"/></g><g fill="#2e3192"><path d="M93.39 12.1 93.39 18.75 92.09 18.75 92.09 12.1 93.39 12.1Z"/><path d="M95.5 18.75 95.5 12.1 96.4 12.1 100.44 16.53 100.44 12.1 101.74 12.1 101.74 18.75 100.84 18.75 96.8 14.31 96.8 18.75 95.5 18.75Z"/><path d="M107.37 13.22 105.14 13.22 105.14 14.71 107.23 14.71 107.23 15.83 105.14 15.83 105.14 18.76 103.84 18.76 103.84 12.11 107.37 12.11 107.37 13.23Z"/><path d="M111 12.1C111.92 12.1 112.38 12.34 112.69 12.6 113.2 13.03 113.35 13.6 113.35 14.09 113.35 14.74 113.09 15.31 112.57 15.65 112.4 15.77 112.16 15.88 111.84 15.94L113.91 18.74 112.3 18.74 110.53 16.07 110.37 16.07 110.37 18.74 109.07 18.74 109.07 12.09 110.99 12.09ZM110.37 15.16 110.74 15.16C110.99 15.16 112.02 15.13 112.02 14.15 112.02 13.17 111 13.15 110.77 13.15L110.38 13.15 110.38 15.15Z"/><path d="M119.33 17.35 116.65 17.35 116.06 18.74 114.65 18.74 117.51 12.09 118.53 12.09 121.31 18.74 119.92 18.74 119.33 17.35ZM118.95 16.29 118 13.9 117.05 16.29 118.94 16.29Z"/><path d="M125.73 13.61C125.34 13.09 124.88 13.04 124.64 13.04 123.94 13.04 123.72 13.48 123.72 13.82 123.72 13.98 123.77 14.13 123.93 14.27 124.09 14.42 124.31 14.5 124.73 14.65 125.25 14.83 125.74 15.01 126.07 15.32 126.37 15.59 126.64 16.04 126.64 16.72 126.64 18.01 125.7 18.9 124.33 18.9 123.1 18.9 122.39 18.15 122.04 17.64L122.89 16.83C123.21 17.48 123.82 17.72 124.29 17.72 124.88 17.72 125.32 17.36 125.32 16.8 125.32 16.56 125.24 16.37 125.06 16.2 124.81 15.97 124.41 15.84 124.03 15.71 123.68 15.59 123.26 15.43 122.92 15.13 122.7 14.94 122.39 14.57 122.39 13.89 122.39 12.91 123.05 11.94 124.52 11.94 124.94 11.94 125.73 12.02 126.4 12.72L125.72 13.61Z"/><path d="M130.37 13.22 130.37 18.75 129.08 18.75 129.08 13.22 127.58 13.22 127.58 12.1 131.87 12.1 131.87 13.22 130.37 13.22Z"/><path d="M135.2 12.1C136.12 12.1 136.58 12.34 136.89 12.6 137.4 13.03 137.55 13.6 137.55 14.09 137.55 14.74 137.29 15.31 136.77 15.65 136.6 15.77 136.36 15.88 136.04 15.94L138.11 18.74 136.5 18.74 134.73 16.07 134.57 16.07 134.57 18.74 133.27 18.74 133.27 12.09 135.19 12.09ZM134.57 15.16 134.94 15.16C135.19 15.16 136.22 15.13 136.22 14.15 136.22 13.17 135.2 13.15 134.97 13.15L134.58 13.15 134.58 15.15Z"/><path d="M140.88 12.1 140.88 16.27C140.88 16.78 141.05 17.09 141.2 17.26 141.39 17.49 141.74 17.72 142.26 17.72 142.78 17.72 143.13 17.49 143.32 17.26 143.47 17.09 143.64 16.78 143.64 16.27L143.64 12.1 144.93 12.1 144.93 16.16C144.93 16.79 144.83 17.43 144.43 17.93 143.95 18.56 143.11 18.89 142.26 18.89 141.41 18.89 140.57 18.56 140.09 17.93 139.69 17.42 139.59 16.78 139.59 16.16L139.59 12.1 140.89 12.1Z"/><path d="M151.86 18.51C151.46 18.72 150.93 18.9 150.22 18.9 149.05 18.9 148.35 18.5 147.79 17.97 147.02 17.23 146.72 16.41 146.72 15.43 146.72 14.22 147.22 13.36 147.79 12.83 148.46 12.2 149.28 11.95 150.23 11.95 150.7 11.95 151.26 12.03 151.86 12.36L151.86 13.87C151.25 13.17 150.49 13.12 150.26 13.12 148.93 13.12 148.06 14.22 148.06 15.44 148.06 16.91 149.2 17.71 150.31 17.71 150.93 17.71 151.48 17.44 151.86 16.98L151.86 18.49Z"/><path d="M155.85 13.22 155.85 18.75 154.56 18.75 154.56 13.22 153.06 13.22 153.06 12.1 157.35 12.1 157.35 13.22 155.85 13.22Z"/><path d="M160.05 12.1 160.05 16.27C160.05 16.78 160.22 17.09 160.37 17.26 160.56 17.49 160.91 17.72 161.43 17.72 161.95 17.72 162.3 17.49 162.49 17.26 162.64 17.09 162.81 16.78 162.81 16.27L162.81 12.1 164.1 12.1 164.1 16.16C164.1 16.79 164 17.43 163.6 17.93 163.12 18.56 162.28 18.89 161.43 18.89 160.58 18.89 159.74 18.56 159.26 17.93 158.86 17.42 158.76 16.78 158.76 16.16L158.76 12.1 160.06 12.1Z"/><path d="M168.13 12.1C169.05 12.1 169.51 12.34 169.82 12.6 170.33 13.03 170.48 13.6 170.48 14.09 170.48 14.74 170.22 15.31 169.7 15.65 169.53 15.77 169.29 15.88 168.97 15.94L171.04 18.74 169.43 18.74 167.66 16.07 167.5 16.07 167.5 18.74 166.2 18.74 166.2 12.09 168.12 12.09ZM167.5 15.16 167.87 15.16C168.12 15.16 169.15 15.13 169.15 14.15 169.15 13.17 168.13 13.15 167.9 13.15L167.51 13.15 167.51 15.15Z"/><path d="M176.2 13.22 173.81 13.22 173.81 14.71 176.1 14.71 176.1 15.83 173.81 15.83 173.81 17.64 176.2 17.64 176.2 18.76 172.51 18.76 172.51 12.11 176.2 12.11 176.2 13.23Z"/></g><g fill="#2e3192"><path d="M97.85 28.21C97.45 28.71 97.32 28.83 97.13 29.02L96.98 29.17 98.33 30.69 96.73 30.69 96.08 29.94C95.77 30.22 94.99 30.84 93.94 30.84 92.57 30.84 91.86 29.89 91.86 28.94 91.86 27.99 92.63 27.44 92.93 27.26L93.45 26.95C93.22 26.72 92.78 26.2 92.78 25.55 92.78 24.72 93.38 23.9 94.61 23.9 95.77 23.9 96.39 24.67 96.39 25.48 96.39 25.96 96.16 26.53 95.45 26.95L95.17 27.12 96.27 28.38C96.72 27.94 96.96 27.65 97.1 27.46L97.86 28.21ZM94.09 27.69C93.58 27.96 93.14 28.33 93.14 28.84 93.14 29.35 93.56 29.72 94.12 29.72 94.68 29.72 95.13 29.36 95.35 29.14L94.09 27.7ZM94.55 26.44 94.85 26.23C95.21 25.98 95.31 25.71 95.31 25.49 95.31 25.16 95.11 24.83 94.66 24.83 94.21 24.83 93.98 25.15 93.98 25.45 93.98 25.7 94.12 25.91 94.26 26.08L94.55 26.44Z"/><path d="M104.77 25.16 104.77 30.69 103.48 30.69 103.48 25.16 101.98 25.16 101.98 24.04 106.27 24.04 106.27 25.16 104.77 25.16Z"/><path d="M111.36 25.16 108.97 25.16 108.97 26.65 111.26 26.65 111.26 27.77 108.97 27.77 108.97 29.58 111.36 29.58 111.36 30.7 107.67 30.7 107.67 24.05 111.36 24.05 111.36 25.17Z"/><path d="M118.03 30.46C117.63 30.67 117.1 30.85 116.39 30.85 115.22 30.85 114.52 30.45 113.96 29.92 113.19 29.18 112.89 28.36 112.89 27.38 112.89 26.17 113.39 25.31 113.96 24.78 114.63 24.15 115.45 23.9 116.4 23.9 116.87 23.9 117.43 23.98 118.03 24.31L118.03 25.82C117.42 25.12 116.66 25.07 116.43 25.07 115.1 25.07 114.23 26.17 114.23 27.39 114.23 28.86 115.37 29.66 116.48 29.66 117.1 29.66 117.65 29.39 118.03 28.93L118.03 30.44Z"/><path d="M121.12 26.62 123.93 26.62 123.93 24.05 125.23 24.05 125.23 30.7 123.93 30.7 123.93 27.74 121.12 27.74 121.12 30.7 119.82 30.7 119.82 24.05 121.12 24.05 121.12 26.62Z"/><path d="M127.33 30.69 127.33 24.04 128.23 24.04 132.27 28.47 132.27 24.04 133.57 24.04 133.57 30.69 132.67 30.69 128.63 26.25 128.63 30.69 127.33 30.69Z"/><path d="M142.44 27.38C142.44 29.4 140.98 30.85 138.89 30.85 136.8 30.85 135.34 29.41 135.34 27.38 135.34 25.35 136.8 23.9 138.89 23.9 140.98 23.9 142.44 25.36 142.44 27.38ZM141.1 27.38C141.1 26.04 140.18 25.08 138.89 25.08 137.6 25.08 136.68 26.04 136.68 27.38 136.68 28.72 137.6 29.67 138.89 29.67 140.18 29.67 141.1 28.72 141.1 27.38Z"/><path d="M145.52 24.05 145.52 29.58 147.57 29.58 147.57 30.7 144.22 30.7 144.22 24.05 145.52 24.05Z"/><path d="M155.63 27.38C155.63 29.4 154.17 30.85 152.08 30.85 149.99 30.85 148.53 29.41 148.53 27.38 148.53 25.35 149.99 23.9 152.08 23.9 154.17 23.9 155.63 25.36 155.63 27.38ZM154.3 27.38C154.3 26.04 153.38 25.08 152.09 25.08 150.8 25.08 149.88 26.04 149.88 27.38 149.88 28.72 150.8 29.67 152.09 29.67 153.38 29.67 154.3 28.72 154.3 27.38Z"/><path d="M160.79 27.14 163.84 27.14 163.84 27.22C163.84 27.67 163.78 29.06 162.86 29.97 162.17 30.66 161.33 30.85 160.5 30.85 159.67 30.85 158.82 30.68 158.09 29.95 157.86 29.72 157.1 28.88 157.1 27.39 157.1 26.1 157.68 25.32 158.08 24.92 158.58 24.41 159.41 23.9 160.7 23.9 161.2 23.9 161.73 23.98 162.24 24.25 162.67 24.47 163.14 24.87 163.49 25.46L162.36 26.07C162.13 25.62 161.79 25.39 161.58 25.28 161.3 25.14 160.95 25.07 160.64 25.07 160.11 25.07 159.51 25.26 159.11 25.66 158.73 26.03 158.44 26.67 158.44 27.41 158.44 28.3 158.82 28.83 159.1 29.09 159.4 29.38 159.87 29.66 160.57 29.66 161.01 29.66 161.51 29.54 161.87 29.26 162.13 29.06 162.39 28.72 162.5 28.24L160.79 28.24 160.79 27.12Z"/><path d="M166.71 27.66 164.43 24.05 165.96 24.05 167.38 26.36 168.8 24.05 170.33 24.05 167.99 27.66 167.99 30.7 166.69 30.7 166.69 27.66Z"/></g><path fill="#2e3192" d="M46.4 0.12H56.93V30.64H46.4z"/><path fill="#2e3192" d="M0 0.09H10.52V30.65H0z"/><path fill="#2e3192" d="M30.89 16.62 30.89 30.55C30.89 30.55 30.89 30.57 30.89 30.55L13.01 13.54C13.01 13.54 13.01 13.54 13.01 13.54L13.01 0.13C13.01 0.13 13.01 0.11 13.01 0.13L30.89 16.62C30.89 16.62 30.89 16.62 30.89 16.62"/><path fill="#2e3192" d="M33.38 10.76H43.910000000000004V30.630000000000003H33.38z"/><path fill="#80d1e9" d="M33.38 8.82 33.38 0.09 43.91 0.09 33.38 8.82Z"/><path fill="#2e3192" d="M58.95 11.27H68.35000000000001V18.59H58.95z"/><path fill="#2e3192" d="M80.45 0.07H80.8V30.72H80.45z"/></g></g></g></svg>